<?xml version="1.0" encoding="UTF-8"?><svg xmlns="http://www.w3.org/2000/svg" viewBox="0 0 369.86 209.78"><defs><style>.d{fill:#008a91;}.e{fill:#e20613;}.f{fill:#00664a;}.g{fill:none;}</style></defs><g id="a"/><g id="b"><g id="c"><g><rect class="f" x="100.96" y="126.92" width="167.79" height="15.01"/><g><path class="f" d="M207.64,45.23l11.33,28.35,20-10.52-17.33-38.4h-25.21l-35.4,66.06s17.42-.54,28.57-8.94c2.82-1.66,10.76-22.52,18.04-36.56h0Z"/><path class="d" d="M238.97,63.07l-20,10.52c-17.12,8.76-33.38,16.45-42.13,18.93-23.1,6.65-51.23,10.64-61.34,1.69-9.5-8.44,12.44-43.77,53.96-51.63,6.73-1.5,10.66-1.12,10.66-1.07,0-.04-2.85-12.08-5.06-14.62-3.1-3.79-6.13-4.57-10.65-3.99-8.99,.54-47.21,10.73-62.3,42.58-8.41,18.1,2.78,36.37,10.02,41.66,3.36,2.46,25.07,21.92,75.27,2.25,49.46-19.19,93.77-49.41,93.81-49.41v-20.22s-19.55,11.17-42.23,23.32Z"/><path class="f" d="M225.98,92.02c1.85,4.35,7.17,17,8.53,20.64,1.77,3.99,6.21,3.99,6.21,3.97h23.08l-17.19-35.62c-6.3,3.53-13.24,7.26-20.63,11Z"/></g><path class="e" d="M281.2,31.87s-26.4,15.14-32.58,17.45c-5.68,2.24-7.81-.72-8.49-1.76-1.52-2.33-4.02-10.01-4.38-11.17,.15,.03,1.61,.32,4.98-.54,4.02-1.02,40.43-21.38,40.46-21.37V31.87h0Z"/></g><rect class="g" x="355.38" y="195.29" width="14.49" height="14.49"/><g><path class="f" d="M34.45,189.35h-12.67l-2.76,5.55h-5.02l11.91-22.97h5.02l11.91,22.97h-5.64l-2.76-5.55Zm-1.81-3.58l-4.53-9.12-4.53,9.12h9.06Z"/><path class="f" d="M46.3,171.93h4.92v19.3h12.75v3.68h-17.67v-22.97Z"/><path class="f" d="M66.81,191.65l2.3-3.32c2.99,2.2,7.06,3.22,10.57,3.22s6.63-1.08,6.63-2.79-3.31-2.46-7.12-3.28c-5.25-1.12-11.49-2.43-11.49-7.02,0-4.27,5.32-6.92,11.39-6.92,4.17,0,8.53,1.18,11.68,3.32l-2.3,3.31c-2.59-1.97-6.07-2.95-9.29-2.95s-6.43,1.02-6.43,2.66c0,1.54,3.02,2.17,6.63,2.89,5.35,1.08,11.98,2.43,11.98,7.42,0,4.53-5.45,7.12-11.62,7.12-4.76,0-9.55-1.41-12.93-3.64Z"/><path class="f" d="M113.28,189.35h-12.67l-2.76,5.55h-5.02l11.91-22.97h5.02l11.91,22.97h-5.64l-2.76-5.55Zm-1.81-3.58l-4.53-9.12-4.53,9.12h9.06Z"/><path class="f" d="M137.14,171.53c3.54,0,7.22,1.08,10.24,3.25l-2.3,2.99c-2.46-1.71-4.53-2.66-7.65-2.66-5.41,0-9.65,3.38-9.65,8.3s4.23,8.3,9.65,8.3c3.28,0,5.45-1.02,8.07-2.79l2.3,2.99c-3.09,2.2-6.96,3.38-10.67,3.38-7.45,0-14.47-4.4-14.47-11.91s7.02-11.85,14.47-11.85Z"/><path class="f" d="M151.74,188.27v-16.34h20.81v3.68h-15.88v5.55h14.57v3.58h-14.57v3.55c0,2,.95,2.95,2.89,2.95h13.46v3.68h-14.64c-4.2,0-6.63-2.46-6.63-6.63Z"/><path class="f" d="M214,171.93l-11.42,22.97h-5.02l-11.42-22.97h5.65l8.6,18.15,8.6-18.15h5.02Z"/><path class="f" d="M214.98,183.41c0-6.5,6.04-11.88,14.54-11.88s14.54,5.38,14.54,11.88-6.04,11.88-14.54,11.88-14.54-5.38-14.54-11.88Zm5.12,0c0,4.63,3.84,8.3,9.42,8.3s9.42-3.68,9.42-8.3-3.84-8.3-9.42-8.3-9.42,3.68-9.42,8.3Z"/><path class="f" d="M247.01,191.65l2.3-3.32c2.99,2.2,7.06,3.22,10.57,3.22s6.63-1.08,6.63-2.79-3.32-2.46-7.12-3.28c-5.25-1.12-11.49-2.43-11.49-7.02,0-4.27,5.32-6.92,11.39-6.92,4.17,0,8.53,1.18,11.68,3.32l-2.3,3.31c-2.59-1.97-6.07-2.95-9.29-2.95s-6.43,1.02-6.43,2.66c0,1.54,3.02,2.17,6.63,2.89,5.35,1.08,11.98,2.43,11.98,7.42,0,4.53-5.45,7.12-11.62,7.12-4.76,0-9.55-1.41-12.93-3.64Z"/><path class="f" d="M289.15,171.53c3.54,0,7.22,1.08,10.24,3.25l-2.3,2.99c-2.46-1.71-4.53-2.66-7.65-2.66-5.42,0-9.65,3.31-9.65,8.24s3.78,8.37,9.48,8.37c2.53,0,4.86-.69,6.5-1.77v-4.4h-6.92v-3.51h11.85v9.65c-2.76,1.97-6.66,3.61-11.62,3.61-8.66,0-14.41-5.12-14.41-11.91,0-7.52,7.02-11.85,14.47-11.85Z"/><path class="f" d="M305.95,188.27v-16.34h20.81v3.68h-15.88v5.55h14.57v3.58h-14.57v3.55c0,2,.95,2.95,2.89,2.95h13.45v3.68h-14.64c-4.2,0-6.63-2.46-6.63-6.63Z"/><path class="f" d="M330.83,191.65l2.3-3.32c2.99,2.2,7.06,3.22,10.57,3.22s6.63-1.08,6.63-2.79-3.32-2.46-7.12-3.28c-5.25-1.12-11.49-2.43-11.49-7.02,0-4.27,5.32-6.92,11.39-6.92,4.17,0,8.53,1.18,11.68,3.32l-2.3,3.31c-2.59-1.97-6.07-2.95-9.29-2.95s-6.43,1.02-6.43,2.66c0,1.54,3.02,2.17,6.63,2.89,5.35,1.08,11.98,2.43,11.98,7.42,0,4.53-5.45,7.12-11.62,7.12-4.76,0-9.55-1.41-12.93-3.64Z"/></g><rect class="g" width="14.49" height="14.49"/></g></g></svg>