<?xml version="1.0" encoding="UTF-8"?>
<svg id="Calque_1" xmlns="http://www.w3.org/2000/svg" width="493.6" height="456.2" version="1.1" viewBox="0 0 493.6 456.2">
  <!-- Generator: Adobe Illustrator 29.1.0, SVG Export Plug-In . SVG Version: 2.1.0 Build 142)  -->
  <defs>
    <style>
      .st0 {
        fill: #e7443b;
      }

      .st1 {
        fill: #1d1d1b;
      }

      .st2 {
        fill: #25368b;
      }
    </style>
  </defs>
  <g>
    <path class="st2" d="M161.6,233.2v15.4h23.9v11.7h-23.9v18.7h24.9v11.7h-38.4v-69.4h38.4v11.8h-24.9Z"/>
    <path class="st2" d="M228,261.1c0,7.1.4,9.4,2.2,12.4,2.3,4,7,6.4,12.2,6.4s9.9-2.5,12.2-6.4c1.8-3,2.2-5.3,2.2-12.4v-39.7h13.5v42.4c0,8.1-1.6,13.8-5.1,18.5-4.8,6.2-13.3,10-22.8,10s-18-3.7-22.8-10c-3.5-4.7-5.1-10.4-5.1-18.5v-42.4h13.5v39.7Z"/>
    <path class="st2" d="M351.8,290.8h-16.6l-18.7-27.9h-1.8v27.9h-13.5v-69.4h20.1c15.6,0,24.5,7.5,24.5,20.5s-5.6,17.6-15.8,19.7l21.8,29.2h0ZM318.6,253.3c8.6,0,13.2-3.7,13.2-10.7s-4.6-10.3-13-10.3h-4.2v21h4Z"/>
    <path class="st2" d="M445.4,256c0,20.4-16.3,36.3-37,36.3s-37.1-15.7-37.1-36.1,16.3-36.4,37.1-36.4,37,15.9,37,36.2h0ZM385.2,256c0,13.2,10.4,23.9,23.2,23.9s23.1-10.7,23.1-23.9-10.3-23.8-23.1-23.8-23.2,10.7-23.2,23.8Z"/>
  </g>
  <g>
    <path class="st1" d="M153.8,312.7v42.9h-5.8v-42.9h5.8Z"/>
    <path class="st1" d="M165.9,312.7l5.8,17.1c1.5,4.7,3.2,10.4,4.4,15.5-.5-3.7-.7-5.3-.9-7.1-.2-2.5-.4-7.3-.4-9.5v-16h5.8v42.9h-5.4l-6.5-19.3c-.3-.9-1.1-3.5-1.7-5.5-.4-1.5-.5-1.7-1.4-6-.1-.4-.3-1.2-.5-2.2.3,1.9.2,1.7.3,3.5.3,3.9.1,1.8.4,6.4.2,2.3.1,2,.2,4.3l.3,18.7h-5.7v-42.9h5.4Z"/>
    <path class="st1" d="M202.5,312.7v4.9h-9.7v13.6h8.7v4.9h-8.7v19.6h-5.8v-42.9h15.5Z"/>
    <path class="st1" d="M228.6,334.5c0,15.8-3,21.7-10.9,21.7s-11.5-6-11.5-23,3-21.1,11-21.1,11.3,5.9,11.3,22.4ZM213.3,320.8c-.7,2.2-1,5.8-1,14.2,0,12.2,1.2,16,5.2,16s3.9-1.5,4.4-4.8c.4-2.4.6-6.1.6-10.4,0-8.7-.4-13.9-1.4-15.9-.8-1.7-2-2.5-3.7-2.5s-3.4,1-4.2,3.4h0Z"/>
    <path class="st1" d="M241.9,312.7c6.8,0,10,3.5,10,11s-2.1,10.2-5.9,11.1l7.9,20.9h-5.9l-7.8-21v21h-5.8v-42.9h7.6ZM240.1,331.8c4.5,0,6.2-1.9,6.2-6.8s-1.4-7.5-5.3-7.5h-.9v14.3h0Z"/>
    <path class="st1" d="M265.4,312.7l3.7,17.5c.8,3.5.8,3.7,1.4,7.1.6,3.7.8,4.7,1,6.4.1-1.2,0-.7.4-2.8.7-4.3.4-2.3,1-6.4.4-2.1.2-1.2.4-2.6l.3-1,.2-1,3.3-17.2h5l4,42.9h-5.6l-1-14.5c0-.2,0-1.5-.1-3.3-.3-7.7-.2-4-.4-11,0,0,0-.4,0-.7-.4,2.9-.6,4.2-.8,5.4-1,5.2-.6,3.4-1,5.4l-3.6,18.7h-3.9l-3.4-16.2c-.8-3.7-1.7-9.3-2.3-13.3l-1.7,29.6h-5.4l3.5-42.9h5Z"/>
    <path class="st1" d="M301.4,312.7l9.2,42.9h-5.7l-1.6-8.4h-8.5l-1.7,8.4h-5.5l9.3-42.9h4.5ZM301.2,335.9c-.7-3.9-1.6-10.5-2.1-14.9-.6,5.7-1.2,9.7-2.5,16.2l-1.1,5.5h6.9l-1.3-6.9h0Z"/>
    <path class="st1" d="M328.5,312.7v5.1h-6.5v37.9h-5.7v-37.9h-6.7v-5.1h18.9Z"/>
    <path class="st1" d="M337.5,312.7v42.9h-5.8v-42.9h5.8Z"/>
    <path class="st1" d="M365.6,334.5c0,15.8-3,21.7-10.9,21.7s-11.5-6-11.5-23,3-21.1,11-21.1,11.3,5.9,11.3,22.4ZM350.3,320.8c-.7,2.2-1,5.8-1,14.2,0,12.2,1.2,16,5.2,16s3.9-1.5,4.4-4.8c.4-2.4.6-6.1.6-10.4,0-8.7-.4-13.9-1.4-15.9-.8-1.7-2-2.5-3.7-2.5s-3.4,1-4.2,3.4h0Z"/>
    <path class="st1" d="M376.8,312.7l5.8,17.1c1.5,4.7,3.2,10.4,4.4,15.5-.5-3.7-.7-5.3-.9-7.1-.2-2.5-.4-7.3-.4-9.5v-16h5.8v42.9h-5.4l-6.5-19.3c-.3-.9-1.1-3.5-1.7-5.5-.4-1.5-.5-1.7-1.4-6-.1-.4-.3-1.2-.5-2.2.3,1.9.2,1.7.3,3.5.3,3.9.1,1.8.4,6.4.2,2.3.1,2,.2,4.3l.3,18.7h-5.7v-42.9h5.4,0Z"/>
  </g>
  <polygon class="st0" points="6.8 6.3 6.8 193.1 69.2 99.6 6.8 6.3"/>
  <polygon class="st2" points="78.3 6.3 78.3 193.1 140.7 99.6 78.3 6.3"/>
  <polygon class="st0" points="147.8 6.3 147.8 193.1 210.2 99.6 147.8 6.3"/>
  <polygon class="st1" points="209 64.5 214.1 72 479.3 72 479.3 442.4 109 442.4 109 180.5 101.5 191.8 101.5 449.9 486.8 449.9 486.8 64.5 209 64.5"/>
</svg>