<svg width="140" height="55" viewBox="0 0 140 55" fill="none" xmlns="http://www.w3.org/2000/svg">
<path d="M46.6042 0L35.108 18.1951L29.043 0L17.5468 18.1951L11.4962 0L0 18.1951L12.1013 54.6141L23.5974 36.4046L29.6625 54.6141L41.1587 36.4046L47.2093 54.6141L58.7199 36.4046L46.6042 0Z" fill="#FFD400"/>
<path d="M69.3084 36.4478C68.7904 36.4556 68.2762 36.3591 67.7963 36.1641C67.3164 35.969 66.8806 35.6794 66.515 35.3124C66.1494 34.9455 65.8614 34.5087 65.6681 34.028C65.4748 33.5474 65.3801 33.0328 65.3899 32.5149C65.3799 31.9895 65.4766 31.4675 65.674 30.9805C65.8714 30.4934 66.1655 30.0514 66.5385 29.6812C66.9114 29.3109 67.3555 29.0201 67.8439 28.8262C68.3324 28.6324 68.8551 28.5395 69.3804 28.5532C69.9395 28.5252 70.4982 28.616 71.0197 28.8196C71.5411 29.0232 72.0135 29.335 72.4057 29.7345L71.3252 30.9734C70.8074 30.4443 70.1059 30.1348 69.366 30.1091C69.0614 30.1144 68.761 30.1812 68.4828 30.3054C68.2047 30.4297 67.9546 30.6089 67.7474 30.8322C67.5402 31.0556 67.3802 31.3185 67.2772 31.6051C67.1741 31.8918 67.13 32.1964 67.1475 32.5005C67.13 32.8054 67.174 33.1106 67.2769 33.3981C67.3798 33.6856 67.5396 33.9494 67.7466 34.1739C67.9536 34.3983 68.2037 34.5789 68.4819 34.7047C68.7601 34.8305 69.0607 34.8991 69.366 34.9063C69.7455 34.9038 70.1203 34.8232 70.4673 34.6695C70.8143 34.5159 71.126 34.2924 71.3829 34.0132L72.449 35.0936C72.0726 35.5603 71.593 35.9334 71.0481 36.1833C70.5031 36.4333 69.9076 36.5534 69.3084 36.5343" fill="#474C55"/>
<path d="M75.4455 28.6541H73.76V36.3182H75.4455V28.6541Z" fill="#474C55"/>
<path d="M81.2225 36.3758H79.7387L76.6414 28.6541H78.4998L80.5022 34.0564L82.5047 28.6541H84.3199L81.2225 36.3758Z" fill="#474C55"/>
<path d="M87.2012 28.6541H85.5156V36.3182H87.2012V28.6541Z" fill="#474C55"/>
<path d="M89.074 36.3182V28.6541H90.7595V34.7767H94.5772V36.3182H89.074Z" fill="#474C55"/>
<path d="M97.5447 28.6541H95.8591V36.3182H97.5447V28.6541Z" fill="#474C55"/>
<path d="M102.111 36.4334C100.911 36.4333 99.7525 35.9925 98.8557 35.1945L99.8497 34.0132C100.478 34.5851 101.291 34.9124 102.14 34.9352C102.832 34.9352 103.25 34.6614 103.25 34.2148C103.25 33.7827 102.976 33.5666 101.708 33.2352C100.152 32.8462 99.1582 32.4141 99.1582 30.887C99.1678 30.5545 99.2466 30.2276 99.3897 29.9273C99.5328 29.627 99.7369 29.3599 99.9891 29.1429C100.241 28.926 100.536 28.7641 100.854 28.6675C101.173 28.5709 101.508 28.5418 101.838 28.582C102.882 28.5571 103.901 28.8986 104.719 29.5472L103.84 30.815C103.267 30.3726 102.575 30.1117 101.852 30.0658C101.204 30.0658 100.858 30.354 100.858 30.7285C100.858 31.2328 101.189 31.3912 102.515 31.737C104.071 32.1403 104.95 32.6878 104.95 34.0276C104.95 35.4682 103.783 36.4046 102.14 36.4046" fill="#474C55"/>
<path d="M109.2 30.6277L108.177 33.1056H110.208L109.2 30.6277ZM111.519 36.3902L110.813 34.6759H107.572L106.88 36.3902H105.151L108.436 28.6685H109.992L113.276 36.3902H111.519Z" fill="#474C55"/>
<path d="M116.806 30.2099V36.3182H115.135V30.2099H112.801V28.6541H119.14V30.2099H116.806Z" fill="#474C55"/>
<path d="M122.381 28.6541H120.696V36.3182H122.381V28.6541Z" fill="#474C55"/>
<path d="M130.247 32.4861C130.257 32.1748 130.204 31.8648 130.092 31.5742C129.98 31.2836 129.811 31.0184 129.594 30.7942C129.378 30.57 129.119 30.3914 128.833 30.2687C128.547 30.1461 128.239 30.082 127.928 30.0803C127.617 30.078 127.309 30.139 127.023 30.2595C126.736 30.38 126.477 30.5575 126.262 30.7812C126.046 31.0049 125.878 31.2701 125.768 31.5607C125.658 31.8513 125.609 32.1613 125.623 32.4717C125.613 32.783 125.666 33.093 125.778 33.3836C125.89 33.6742 126.059 33.9394 126.275 34.1636C126.491 34.3878 126.75 34.5664 127.036 34.689C127.323 34.8117 127.631 34.8758 127.942 34.8775C128.253 34.8798 128.561 34.8188 128.847 34.6983C129.133 34.5778 129.392 34.4003 129.608 34.1766C129.823 33.9529 129.991 33.6877 130.101 33.397C130.211 33.1064 130.261 32.7965 130.247 32.4861ZM127.928 36.4478C127.399 36.4653 126.872 36.3759 126.379 36.1852C125.886 35.9945 125.436 35.7062 125.057 35.3377C124.678 34.9693 124.377 34.5281 124.172 34.0406C123.967 33.5531 123.863 33.0293 123.865 32.5005C123.927 31.463 124.382 30.4882 125.139 29.7755C125.895 29.0627 126.895 28.6658 127.935 28.6658C128.974 28.6658 129.974 29.0627 130.731 29.7755C131.487 30.4882 131.943 31.463 132.005 32.5005C132.005 33.0306 131.899 33.5554 131.692 34.0437C131.486 34.532 131.184 34.974 130.804 35.3434C130.424 35.7128 129.973 36.0022 129.479 36.1944C128.985 36.3866 128.457 36.4776 127.928 36.4622" fill="#474C55"/>
<path d="M138.574 36.3182L134.857 31.4489V36.3182H133.2V28.6541H134.756L138.343 33.3649V28.6541H140V36.3182H138.574Z" fill="#474C55"/>
<path d="M72.3914 26.2914V21.278L70.2449 24.5626H70.2017L68.0552 21.3212V26.2914H66.3984V18.6273H68.228L70.2449 21.8687L72.2618 18.6273H74.077V26.2914H72.3914Z" fill="#474C55"/>
<path d="M78.831 26.4067C78.3761 26.4535 77.9166 26.3972 77.4865 26.2418C77.0565 26.0864 76.667 25.836 76.3471 25.5092C76.0273 25.1825 75.7853 24.7877 75.6391 24.3545C75.493 23.9212 75.4465 23.4606 75.5031 23.0068V18.6849H77.1886V23.0068C77.1886 24.2458 77.8225 24.894 78.8454 24.894C79.8682 24.894 80.502 24.2746 80.502 23.0644V18.7426H82.1876V23.0644C82.246 23.5236 82.2003 23.9901 82.0538 24.4292C81.9073 24.8683 81.6638 25.2688 81.3413 25.6009C81.0189 25.9331 80.6258 26.1883 80.1912 26.3478C79.7566 26.5072 79.2917 26.5667 78.831 26.5219" fill="#474C55"/>
<path d="M86.4951 26.4067C85.2934 26.4135 84.1324 25.9717 83.2393 25.1678L84.2333 23.9864C84.863 24.5562 85.6751 24.8831 86.5239 24.9084C87.2154 24.9084 87.6331 24.6347 87.6331 24.1881C87.6331 23.7559 87.3738 23.5399 86.0917 23.2085C84.5502 22.8051 83.5562 22.3873 83.5562 20.8603C83.5639 20.5265 83.6412 20.1981 83.7834 19.8961C83.9257 19.5941 84.1295 19.3252 84.3819 19.1067C84.6343 18.8882 84.9297 18.725 85.249 18.6275C85.5682 18.5301 85.9044 18.5006 86.2358 18.5409C87.2818 18.5163 88.3027 18.8634 89.117 19.5205L88.2383 20.7882C87.6629 20.34 86.9641 20.0786 86.2358 20.0391C85.6019 20.0391 85.2562 20.3272 85.2562 20.7018C85.2562 21.206 85.5875 21.3789 86.9128 21.7102C88.4687 22.128 89.3475 22.6755 89.3475 24.0153C89.3475 25.4559 88.1806 26.3923 86.4662 26.3923" fill="#474C55"/>
<path d="M92.5315 18.0222L93.7704 16.0774L95.211 16.7112L93.7704 18.0222H92.5315ZM90.5723 26.2914V18.6273H96.3348V20.0679H92.2289V21.6958H95.8449V23.1364H92.2289V24.7499H96.3924V26.1906L90.5723 26.2914Z" fill="#474C55"/>
<path d="M97.833 26.2914V18.6273H103.61V20.1255H99.5041V21.6814H103.12V23.1796H99.5041V24.7931H103.668V26.2914H97.833Z" fill="#474C55"/>
<path d="M113.075 22.4594C113.089 22.151 113.039 21.8429 112.927 21.555C112.816 21.2671 112.646 21.0057 112.427 20.7873C112.209 20.569 111.947 20.3987 111.66 20.2872C111.372 20.1758 111.064 20.1256 110.755 20.1399H109.459V24.7644H110.755C111.062 24.7829 111.37 24.7366 111.658 24.6285C111.945 24.5203 112.207 24.3527 112.426 24.1366C112.645 23.9206 112.816 23.6608 112.927 23.3743C113.039 23.0878 113.089 22.7809 113.075 22.4738V22.4594ZM110.755 26.2914H107.773V18.6273H110.755C111.277 18.5918 111.8 18.6637 112.293 18.8387C112.785 19.0137 113.236 19.288 113.619 19.6446C114.001 20.0011 114.306 20.4324 114.515 20.9116C114.723 21.3908 114.831 21.9078 114.832 22.4305C114.833 22.9551 114.727 23.4742 114.519 23.9559C114.311 24.4375 114.007 24.8714 113.625 25.2306C113.242 25.5899 112.791 25.8668 112.297 26.0443C111.803 26.2218 111.279 26.2961 110.755 26.2626" fill="#474C55"/>
<path d="M116.014 26.2914V18.6273H121.791V20.1255H117.685V21.6814H121.301V23.1796H117.685V24.7931H121.848V26.2914H116.014Z" fill="#474C55"/>
<path d="M125.767 26.2914V18.6273H127.452V24.7499H131.27V26.2914H125.767Z" fill="#474C55"/>
<path d="M135.909 20.6009L134.886 23.0788H136.917L135.909 20.6009ZM138.228 26.2914L137.522 24.577H134.281L133.575 26.2914H131.86L135.145 18.5696H136.701L139.986 26.2914H138.228Z" fill="#474C55"/>
<path d="M104.892 50.5083V46.489C104.609 46.6055 104.304 46.6548 103.999 46.633H103.61C104.056 46.9067 103.999 47.3101 103.999 47.8144V49.5287C103.975 49.903 103.816 50.2557 103.55 50.5209C103.285 50.7861 102.933 50.9455 102.558 50.9693C101.665 50.9693 101.29 50.3498 101.29 49.327V46.4457C101.008 46.5633 100.702 46.6127 100.397 46.5898H100.008C100.455 46.8635 100.397 47.2669 100.397 47.7711V49.4711C100.397 51.0269 101.074 51.7761 102.27 51.7761C102.623 51.7988 102.976 51.7314 103.296 51.5802C103.617 51.429 103.893 51.199 104.1 50.9117V51.6464H105.411C104.964 51.3871 105.022 50.9693 105.022 50.4651" fill="#474C55"/>
<path d="M110.64 49.0677C110.671 48.7487 110.633 48.4268 110.531 48.1232C110.428 47.8196 110.263 47.541 110.045 47.3058C109.828 47.0705 109.563 46.8838 109.268 46.758C108.973 46.6321 108.655 46.5699 108.335 46.5754C107.99 46.5669 107.648 46.6299 107.329 46.7605C107.01 46.8911 106.721 47.0865 106.482 47.3342C106.242 47.582 106.057 47.8768 105.937 48.1999C105.817 48.5231 105.765 48.8676 105.785 49.2118C105.787 49.5825 105.863 49.949 106.011 50.2891C106.158 50.6293 106.373 50.936 106.642 51.1906C106.912 51.4452 107.23 51.6424 107.578 51.7703C107.926 51.8982 108.296 51.9541 108.666 51.9345C109.161 51.952 109.653 51.8585 110.107 51.6608L110.626 50.6236C110.157 51.0139 109.564 51.2235 108.955 51.2142C108.675 51.2232 108.396 51.1731 108.137 51.067C107.878 50.961 107.644 50.8014 107.451 50.5988C107.258 50.3961 107.11 50.155 107.017 49.8911C106.923 49.6273 106.886 49.3467 106.909 49.0677H110.64ZM106.938 48.4338C106.977 48.1156 107.133 47.8232 107.375 47.613C107.617 47.4028 107.928 47.2898 108.249 47.2957C108.41 47.2799 108.574 47.2972 108.728 47.3466C108.883 47.3959 109.026 47.4763 109.149 47.5828C109.272 47.6893 109.371 47.8197 109.442 47.966C109.513 48.1123 109.553 48.2715 109.56 48.4338H106.938Z" fill="#474C55"/>
<path d="M111.519 44.184C111.764 44.184 112.268 44.184 112.412 44.0111V50.9837C112.689 51.0631 112.974 51.1066 113.262 51.1134C113.505 51.1229 113.748 51.08 113.973 50.9877C114.199 50.8953 114.402 50.7556 114.568 50.578C114.735 50.4005 114.861 50.1891 114.939 49.9584C115.017 49.7276 115.045 49.4828 115.02 49.2406C115.02 48.1745 114.515 47.3533 113.493 47.3533C113.192 47.3527 112.897 47.4376 112.643 47.5983L113.19 46.6619C113.42 46.576 113.664 46.5321 113.91 46.5322C114.217 46.5521 114.517 46.6332 114.792 46.7708C115.067 46.9083 115.312 47.0995 115.512 47.3331C115.712 47.5667 115.863 47.838 115.957 48.1309C116.05 48.4239 116.084 48.7326 116.057 49.0389C116.078 49.4352 116.012 49.8313 115.866 50.2C115.719 50.5688 115.494 50.9014 115.207 51.1751C114.919 51.4488 114.576 51.6571 114.201 51.7857C113.825 51.9143 113.426 51.9601 113.032 51.9201C112.413 51.8998 111.796 51.8324 111.188 51.7184C111.519 51.56 111.49 51.1998 111.49 50.8253V45.7687C111.49 45.25 111.49 44.5441 111.115 44.328L111.519 44.184Z" fill="#474C55"/>
<path d="M121.603 49.0677C121.631 48.7492 121.593 48.4282 121.489 48.1256C121.386 47.823 121.22 47.5454 121.003 47.3106C120.786 47.0758 120.522 46.8891 120.229 46.7625C119.935 46.6359 119.618 46.5722 119.298 46.5754C118.954 46.5669 118.611 46.6299 118.292 46.7605C117.973 46.8911 117.685 47.0865 117.445 47.3342C117.205 47.582 117.02 47.8768 116.9 48.1999C116.78 48.5231 116.728 48.8676 116.748 49.2118C116.75 49.5825 116.826 49.949 116.974 50.2891C117.121 50.6293 117.336 50.936 117.605 51.1906C117.875 51.4452 118.193 51.6424 118.541 51.7703C118.889 51.8982 119.259 51.9541 119.63 51.9345C120.124 51.9511 120.616 51.8576 121.07 51.6608L121.589 50.6236C121.116 51.0161 120.518 51.2257 119.903 51.2142C119.625 51.2212 119.348 51.1695 119.091 51.0625C118.833 50.9555 118.601 50.7957 118.41 50.5933C118.218 50.3909 118.071 50.1504 117.979 49.8876C117.886 49.6248 117.85 49.3455 117.872 49.0677H121.603ZM117.886 48.4338C117.929 48.1144 118.087 47.8218 118.332 47.6118C118.576 47.4019 118.89 47.2894 119.212 47.2957C119.374 47.2799 119.537 47.2972 119.692 47.3466C119.846 47.3959 119.989 47.4763 120.112 47.5828C120.235 47.6893 120.334 47.8197 120.405 47.966C120.476 48.1123 120.516 48.2715 120.523 48.4338H117.886Z" fill="#474C55"/>
<path d="M126.098 47.8C125.94 47.6248 125.747 47.4853 125.53 47.3909C125.314 47.2965 125.081 47.2493 124.845 47.2525C124.612 47.25 124.382 47.2956 124.167 47.3866C123.953 47.4775 123.76 47.6118 123.601 47.7809C123.441 47.9501 123.318 48.1504 123.24 48.3694C123.161 48.5884 123.129 48.8213 123.145 49.0533C123.137 49.3336 123.186 49.6125 123.29 49.873C123.393 50.1336 123.549 50.3702 123.747 50.5685C123.946 50.7667 124.182 50.9224 124.443 51.026C124.703 51.1297 124.982 51.179 125.262 51.171C125.789 51.1463 126.293 50.9546 126.703 50.6236L126.17 51.6752C125.737 51.833 125.277 51.9064 124.816 51.8914C124.464 51.9127 124.111 51.8632 123.778 51.7457C123.446 51.6282 123.14 51.4452 122.879 51.2074C122.619 50.9696 122.408 50.6819 122.261 50.3614C122.114 50.0409 122.032 49.6941 122.021 49.3414C122.004 48.9618 122.067 48.5827 122.207 48.2293C122.347 47.8758 122.56 47.5559 122.832 47.2906C123.104 47.0253 123.429 46.8205 123.786 46.6898C124.143 46.5591 124.523 46.5054 124.902 46.5322C125.276 46.5318 125.648 46.5754 126.012 46.6619L126.098 47.8Z" fill="#474C55"/>
<path d="M109.358 45.6246V44.5153C108.686 44.855 108.103 45.3486 107.658 45.9559V46.3881C108.167 46.0275 108.746 45.7773 109.358 45.6534" fill="#474C55"/>
<path d="M100.959 52.8134C100.316 52.9145 99.6583 52.8331 99.0597 52.5784C98.4612 52.3237 97.9462 51.9059 97.5735 51.3727C98.1382 51.0367 98.6036 50.5571 98.9225 49.9826C99.2413 49.4081 99.4022 48.7594 99.3887 48.1025V47.9441C99.3985 47.4552 99.3095 46.9693 99.1269 46.5157C98.9443 46.0621 98.6719 45.65 98.3261 45.3042C97.9804 44.9585 97.5683 44.6861 97.1146 44.5035C96.661 44.3209 96.1752 44.2318 95.6863 44.2416C95.1884 44.2359 94.6943 44.3295 94.233 44.5169C93.7716 44.7044 93.3523 44.982 92.9995 45.3334C92.6467 45.6849 92.3675 46.1031 92.1783 46.5638C91.9891 47.0244 91.8936 47.5181 91.8975 48.0161V48.1601C91.8762 48.6509 91.9537 49.141 92.1251 49.6013C92.2966 50.0617 92.5586 50.4829 92.8957 50.8402C93.2329 51.1975 93.6383 51.4835 94.0879 51.6814C94.5375 51.8793 95.0223 51.985 95.5135 51.9922C95.7952 51.9831 96.0752 51.9445 96.349 51.877C96.7758 52.3819 97.3075 52.7878 97.9071 53.0664C98.5066 53.3451 99.1598 53.4898 99.8209 53.4905C100.315 53.4541 100.774 53.2267 101.103 52.8566L100.959 52.8134ZM95.6719 51.1278C94.1304 51.1278 93.0644 49.3847 93.0644 47.9152V47.7424C93.045 47.3909 93.0965 47.0392 93.216 46.7081C93.3354 46.377 93.5202 46.0733 93.7595 45.8152C93.9988 45.5571 94.2876 45.3498 94.6088 45.2057C94.9299 45.0616 95.2767 44.9836 95.6286 44.9764C96.3861 45.0494 97.0839 45.4191 97.5698 46.0048C98.0556 46.5905 98.29 47.3446 98.2218 48.1025V48.2754C98.2599 48.6353 98.2225 48.9992 98.1123 49.3439C98.002 49.6886 97.8212 50.0066 97.5814 50.2776C97.3415 50.5486 97.0479 50.7667 96.7191 50.918C96.3904 51.0694 96.0338 51.1506 95.6719 51.1566" fill="#474C55"/>
<path d="M133.575 44.184H128.59V47.2381H133.575V44.184Z" fill="#474C55"/>
<path d="M140 44.184H135.015V47.2381H140V44.184Z" fill="#474C55"/>
<path d="M133.575 48.6788H128.59V51.7329H133.575V48.6788Z" fill="#474C55"/>
<path d="M140 48.6788H135.015V51.7329H140V48.6788Z" fill="#474C55"/>
<path d="M132.293 45.9416C132.293 46.1289 132.12 46.1865 132.091 46.1865C132.102 46.1294 132.099 46.0705 132.081 46.0151C132.064 45.9597 132.032 45.9096 131.99 45.8695C131.925 45.8302 131.846 45.8173 131.772 45.8333C131.697 45.8494 131.631 45.8932 131.587 45.956C131.541 46.0358 131.512 46.124 131.5 46.2153H131.76V46.417H131.241C131.243 46.4538 131.252 46.4898 131.269 46.5227C131.285 46.5556 131.308 46.5846 131.337 46.6078C131.366 46.631 131.399 46.6478 131.435 46.6571C131.47 46.6664 131.507 46.6681 131.544 46.6619C131.544 46.6619 131.544 46.878 131.241 46.7627C131.245 46.8269 131.233 46.8911 131.205 46.9491C131.178 47.0072 131.135 47.0571 131.083 47.0941C131.027 47.0588 130.982 47.0096 130.952 46.9515C130.922 46.8934 130.907 46.8282 130.91 46.7627C130.651 46.878 130.607 46.6619 130.607 46.6619C130.644 46.6681 130.681 46.6664 130.716 46.6571C130.752 46.6478 130.785 46.631 130.814 46.6078C130.843 46.5846 130.866 46.5556 130.882 46.5227C130.899 46.4898 130.908 46.4538 130.91 46.417H130.391V46.1865H130.651C130.639 46.0951 130.61 46.007 130.564 45.9272C130.52 45.8644 130.454 45.8206 130.379 45.8045C130.305 45.7885 130.226 45.8014 130.161 45.8407C130.115 45.8779 130.081 45.9278 130.063 45.9841C130.045 46.0404 130.044 46.1008 130.06 46.1577C130.06 46.1577 129.916 46.1577 129.858 45.9128C129.832 45.8317 129.831 45.7448 129.854 45.6629C129.877 45.581 129.924 45.5078 129.988 45.4524C130.053 45.397 130.132 45.3619 130.217 45.3516C130.301 45.3412 130.387 45.356 130.463 45.3941C130.588 45.4825 130.687 45.6025 130.75 45.7417C130.814 45.8809 130.839 46.0344 130.823 46.1865H130.967C130.992 46.0387 130.992 45.8877 130.967 45.7399C130.922 45.5772 130.864 45.4183 130.795 45.2645C130.739 45.1708 130.709 45.0638 130.709 44.9547C130.709 44.8457 130.739 44.7387 130.795 44.645L131.054 44.3137C131.054 44.3137 131.169 44.4721 131.299 44.645C131.355 44.7387 131.384 44.8457 131.384 44.9547C131.384 45.0638 131.355 45.1708 131.299 45.2645C131.223 45.4156 131.165 45.5752 131.126 45.7399C131.109 45.8883 131.109 46.0381 131.126 46.1865H131.27C131.255 46.0344 131.28 45.8809 131.343 45.7417C131.406 45.6025 131.505 45.4825 131.63 45.3941C131.706 45.356 131.792 45.3412 131.876 45.3516C131.961 45.3619 132.04 45.397 132.105 45.4524C132.17 45.5078 132.216 45.581 132.24 45.6629C132.263 45.7448 132.261 45.8317 132.235 45.9128" fill="white"/>
<path d="M138.718 45.9416C138.718 46.1289 138.559 46.1865 138.531 46.1865C138.542 46.1294 138.538 46.0705 138.521 46.0151C138.503 45.9597 138.472 45.9096 138.43 45.8695C138.364 45.8302 138.286 45.8173 138.211 45.8333C138.136 45.8494 138.07 45.8932 138.026 45.956C137.981 46.0358 137.951 46.124 137.94 46.2153H138.199V46.417H137.681C137.682 46.4524 137.691 46.487 137.707 46.5188C137.723 46.5506 137.745 46.5788 137.772 46.6018C137.799 46.6247 137.83 46.6419 137.864 46.6523C137.898 46.6626 137.933 46.6659 137.969 46.6619C137.969 46.6619 137.969 46.878 137.681 46.7627C137.705 46.7948 137.719 46.833 137.723 46.873C137.727 46.913 137.719 46.9531 137.701 46.989C137.683 47.0249 137.655 47.0551 137.621 47.0762C137.587 47.0973 137.548 47.1085 137.508 47.1085C137.468 47.1085 137.428 47.0973 137.394 47.0762C137.36 47.0551 137.332 47.0249 137.314 46.989C137.296 46.9531 137.289 46.913 137.292 46.873C137.296 46.833 137.311 46.7948 137.335 46.7627C137.075 46.878 137.047 46.6619 137.047 46.6619C137.082 46.6659 137.118 46.6626 137.151 46.6523C137.185 46.6419 137.217 46.6247 137.244 46.6018C137.271 46.5788 137.293 46.5506 137.308 46.5188C137.324 46.487 137.333 46.4524 137.335 46.417H136.816V46.1865H137.075C137.064 46.0951 137.035 46.007 136.989 45.9272C136.945 45.8644 136.879 45.8206 136.804 45.8045C136.73 45.7885 136.651 45.8014 136.586 45.8407C136.544 45.8808 136.512 45.9309 136.495 45.9863C136.477 46.0417 136.474 46.1006 136.485 46.1577C136.485 46.1577 136.355 46.1577 136.298 45.9128C136.272 45.8317 136.27 45.7448 136.293 45.6629C136.316 45.581 136.363 45.5078 136.428 45.4524C136.492 45.397 136.572 45.3619 136.656 45.3516C136.741 45.3412 136.827 45.356 136.903 45.3941C137.025 45.4845 137.123 45.6048 137.186 45.7435C137.249 45.8822 137.275 46.0347 137.263 46.1865H137.45C137.471 46.0384 137.471 45.888 137.45 45.7399C137.399 45.5771 137.337 45.4183 137.263 45.2645C137.207 45.1708 137.177 45.0638 137.177 44.9547C137.177 44.8457 137.207 44.7387 137.263 44.645L137.522 44.3137C137.6 44.4306 137.687 44.5413 137.781 44.645C137.837 44.7387 137.867 44.8457 137.867 44.9547C137.867 45.0638 137.837 45.1708 137.781 45.2645C137.708 45.4183 137.645 45.5771 137.594 45.7399C137.565 45.8873 137.565 46.0391 137.594 46.1865H137.724C137.711 46.0347 137.738 45.8822 137.801 45.7435C137.864 45.6048 137.961 45.4845 138.084 45.3941C138.16 45.356 138.246 45.3412 138.33 45.3516C138.415 45.3619 138.494 45.397 138.559 45.4524C138.623 45.5078 138.67 45.581 138.693 45.6629C138.717 45.7448 138.715 45.8317 138.689 45.9128" fill="white"/>
<path d="M132.293 50.5083C132.293 50.71 132.12 50.7676 132.091 50.7676C132.102 50.7106 132.099 50.6517 132.081 50.5963C132.064 50.5409 132.032 50.4908 131.99 50.4507C131.958 50.4294 131.922 50.4148 131.884 50.4076C131.847 50.4004 131.808 50.4009 131.77 50.4089C131.733 50.417 131.697 50.4325 131.666 50.4545C131.634 50.4765 131.607 50.5046 131.587 50.5372C131.541 50.617 131.512 50.7051 131.5 50.7965H131.76V50.9981H131.241C131.243 51.0349 131.252 51.071 131.268 51.1039C131.285 51.1368 131.308 51.1658 131.337 51.189C131.366 51.2121 131.399 51.2289 131.434 51.2383C131.47 51.2476 131.507 51.2492 131.544 51.2431C131.544 51.2431 131.544 51.4448 131.241 51.3439C131.244 51.4079 131.231 51.4717 131.203 51.5295C131.176 51.5873 131.134 51.6373 131.083 51.6752C131.027 51.64 130.982 51.5908 130.952 51.5327C130.921 51.4745 130.907 51.4094 130.91 51.3439C130.65 51.4448 130.607 51.2431 130.607 51.2431C130.643 51.2492 130.681 51.2476 130.716 51.2383C130.752 51.2289 130.785 51.2121 130.814 51.189C130.842 51.1658 130.866 51.1368 130.882 51.1039C130.899 51.071 130.908 51.0349 130.91 50.9981H130.391V50.7965H130.65C130.639 50.7051 130.61 50.617 130.564 50.5372C130.543 50.5046 130.517 50.4765 130.485 50.4545C130.454 50.4325 130.418 50.417 130.38 50.4089C130.343 50.4009 130.304 50.4004 130.266 50.4076C130.228 50.4148 130.193 50.4294 130.161 50.4507C130.115 50.4879 130.081 50.5378 130.063 50.5941C130.045 50.6504 130.044 50.7107 130.06 50.7676C130.06 50.7676 129.916 50.7677 129.858 50.5083C129.828 50.4274 129.824 50.3391 129.846 50.2556C129.868 50.1722 129.916 50.0977 129.982 50.0425C130.049 49.9872 130.131 49.9538 130.217 49.9469C130.303 49.9401 130.389 49.96 130.463 50.0041C130.588 50.0925 130.687 50.2125 130.75 50.3517C130.813 50.4909 130.839 50.6443 130.823 50.7965H130.967C130.992 50.6486 130.992 50.4977 130.967 50.3499C130.924 50.1865 130.866 50.0273 130.794 49.8745C130.739 49.7808 130.709 49.6738 130.709 49.5647C130.709 49.4557 130.739 49.3487 130.794 49.255L131.054 48.9236C131.054 48.9236 131.169 49.0821 131.299 49.255C131.354 49.3487 131.384 49.4557 131.384 49.5647C131.384 49.6738 131.354 49.7808 131.299 49.8745C131.22 50.0247 131.162 50.1845 131.126 50.3499C131.109 50.4983 131.109 50.6481 131.126 50.7965H131.27C131.254 50.6443 131.28 50.4909 131.343 50.3517C131.406 50.2125 131.505 50.0925 131.63 50.0041C131.704 49.96 131.79 49.9401 131.876 49.9469C131.962 49.9538 132.044 49.9872 132.111 50.0425C132.177 50.0977 132.225 50.1722 132.247 50.2556C132.269 50.3391 132.265 50.4274 132.235 50.5083" fill="white"/>
<path d="M138.718 50.5083C138.718 50.71 138.559 50.7676 138.53 50.7676C138.542 50.7106 138.538 50.6517 138.521 50.5963C138.503 50.5409 138.472 50.4908 138.43 50.4507C138.398 50.4294 138.362 50.4148 138.324 50.4076C138.286 50.4004 138.247 50.4009 138.21 50.4089C138.172 50.417 138.136 50.4325 138.105 50.4545C138.073 50.4765 138.047 50.5046 138.026 50.5372C137.98 50.617 137.951 50.7051 137.94 50.7965H138.199V50.9981H137.68C137.682 51.0335 137.691 51.0682 137.707 51.1C137.723 51.1318 137.745 51.16 137.772 51.183C137.799 51.2059 137.83 51.2231 137.864 51.2334C137.898 51.2438 137.933 51.247 137.969 51.2431C137.969 51.2431 137.969 51.4448 137.68 51.3439C137.704 51.376 137.719 51.4142 137.723 51.4541C137.726 51.4941 137.719 51.5343 137.701 51.5702C137.683 51.6061 137.655 51.6363 137.621 51.6574C137.587 51.6785 137.548 51.6897 137.508 51.6897C137.467 51.6897 137.428 51.6785 137.394 51.6574C137.36 51.6363 137.332 51.6061 137.314 51.5702C137.296 51.5343 137.289 51.4941 137.292 51.4541C137.296 51.4142 137.311 51.376 137.335 51.3439C137.075 51.4448 137.047 51.2431 137.047 51.2431C137.082 51.247 137.117 51.2438 137.151 51.2334C137.185 51.2231 137.217 51.2059 137.244 51.183C137.271 51.16 137.293 51.1318 137.308 51.1C137.324 51.0682 137.333 51.0335 137.335 50.9981H136.816V50.7965H137.075C137.064 50.7051 137.035 50.617 136.989 50.5372C136.968 50.5046 136.942 50.4765 136.91 50.4545C136.879 50.4325 136.843 50.417 136.806 50.4089C136.768 50.4009 136.729 50.4004 136.691 50.4076C136.654 50.4148 136.618 50.4294 136.586 50.4507C136.544 50.4908 136.512 50.5409 136.495 50.5963C136.477 50.6517 136.474 50.7106 136.485 50.7676C136.485 50.7676 136.355 50.7677 136.297 50.5083C136.268 50.4274 136.263 50.3391 136.286 50.2556C136.308 50.1722 136.355 50.0977 136.422 50.0425C136.488 49.9872 136.57 49.9538 136.656 49.9469C136.742 49.9401 136.828 49.96 136.903 50.0041C137.025 50.0945 137.123 50.2148 137.186 50.3535C137.249 50.4921 137.275 50.6446 137.263 50.7965H137.45C137.471 50.6483 137.471 50.498 137.45 50.3499C137.402 50.1862 137.339 50.0271 137.263 49.8745C137.207 49.7808 137.177 49.6738 137.177 49.5647C137.177 49.4557 137.207 49.3487 137.263 49.255L137.522 48.9236C137.6 49.0405 137.687 49.1513 137.781 49.255C137.837 49.3487 137.867 49.4557 137.867 49.5647C137.867 49.6738 137.837 49.7808 137.781 49.8745C137.705 50.0271 137.642 50.1862 137.594 50.3499C137.564 50.4973 137.564 50.6491 137.594 50.7965H137.724C137.711 50.6446 137.738 50.4921 137.801 50.3535C137.864 50.2148 137.961 50.0945 138.084 50.0041C138.158 49.96 138.244 49.9401 138.33 49.9469C138.416 49.9538 138.498 49.9872 138.565 50.0425C138.631 50.0977 138.678 50.1722 138.701 50.2556C138.723 50.3391 138.719 50.4274 138.689 50.5083" fill="white"/>
</svg>
